<?xml version="1.0"?><svg version="1.2" baseProfile="tiny-ps" viewBox="0 0 150 150" xmlns="http://www.w3.org/2000/svg" xmlns:xlink="http://www.w3.org/1999/xlink"><title>Ecommerce Pro</title><g><g fill="#fefefe" transform="matrix(.1 0 0 -.1 0 150)"><path d="M0 750V0h1500v1500H0V750z"/></g><g fill="#d2d2d2" transform="matrix(.1 0 0 -.1 0 150)"><path d="M491 1090c-17-28-31-52-31-54 0-3-38-68-84-146l-84-142 113-192 113-191 119-3 119-3 19 38c11 21 36 64 55 96l35 57h223l54 92c29 51 55 96 56 100 2 5-30 66-71 136s-87 150-103 177c-15 28-32 58-38 68l-11 17H522l-31-50zm414-237c28-47 52-90 53-95l4-8H742l-52-90c-28-49-53-90-55-90-1 0-26 40-54 89l-52 90 46 76c25 42 45 80 45 84s5 12 12 19l12 12h211l50-87z"/></g><g fill="#909090" transform="matrix(.1 0 0 -.1 0 150)"><path d="M430 978c-51-90-102-179-113-198l-19-35 113-192 112-193h226l56 95 55 94 113 3 112 3 58 96 57 96-113 194-113 194-225 3-225 2-94-162zm485-135 54-93H745l-54-96-54-96-55 94-55 93 33 60c18 33 44 77 57 98l24 38 110-3 110-3 54-92z"/></g><g fill="#585858" transform="matrix(.1 0 0 -.1 0 150)"><path d="M439 988c-45-79-95-165-110-191l-29-48 112-194 113-195h221l58 100 58 100h226l51 90 52 90-3 13c-2 8-50 95-108 195l-105 182H522l-83-142zm478-143 52-90-109-3-110-3-56-95-56-96-8 9c-4 4-30 47-57 94l-50 87 56 96 56 97 115-3 114-3 53-90z"/></g><g fill="#313131" transform="matrix(.1 0 0 -.1 0 150)"><path d="M420 948c-58-100-106-188-108-195l-4-13 60-103c33-56 72-124 87-152 16-27 39-67 52-87l23-38h215l58 100 57 100h225l50 87c28 48 51 91 53 95 3 7-131 248-195 351l-23 37H524L420 948zm494-92c31-52 56-97 56-100s-49-6-109-6H752l-53-95c-30-52-57-95-61-95-8 0-11 4-77 116l-42 72 52 88c28 49 56 95 62 102l9 12h217l55-94z"/></g><g fill="#212121" transform="matrix(.1 0 0 -.1 0 150)"><path d="M522 1118c-5-7-55-92-111-188L309 755l103-6 103-5-102-2-102-2 92-158c51-86 98-169 106-185l14-27h223l55 95 54 95h235v9c0 5 20 44 45 85 25 42 45 79 45 81 0 3-96 5-214 5H751l-56-95c-30-52-57-95-60-95-5 0-99 159-108 184l-7 19 57 99 57 99 115-3 115-3 57-95 56-95 101-3 102-3v7c0 4-26 53-59 108-32 56-69 119-81 141s-33 59-47 83l-25 42H532l-10-12z"/></g></g></svg>